{
  "source": "C:\\Users\\Peter\\Desktop\\stuff\\MIUN\\quantitative_research\\video_compression\\videos\\BVI-HD\\BVI-HD_CDVL_videos\\ORIG\\FishAndRock_1920x1080_30fps.mp4",
  "output": "C:\\Users\\Peter\\Desktop\\stuff\\MIUN\\quantitative_research\\video_compression\\compressed_videos\\BVI-HD\\av1\\4\\FishAndRock_1920x1080_30fps_av1.mkv",
  "codec": "av1",
  "ok": "Input #0, mov,mp4,m4a,3gp,3g2,mj2, from 'C:\\Users\\Peter\\Desktop\\stuff\\MIUN\\quantitative_research\\video_compression\\videos\\BVI-HD\\BVI-HD_CDVL_videos\\ORIG\\FishAndRock_1920x1080_30fps.mp4':\n  Metadata:\n    major_brand     : isom\n    minor_version   : 512\n    compatible_brands: isomiso2avc1mp41\n    encoder         : Lavf54.28.101\n  Duration: 00:00:05.00, start: 0.000000, bitrate: 251564 kb/s\n  Stream #0:0[0x1](und): Video: h264 (High 4:4:4 Predictive) (avc1 / 0x31637661), yuv420p(progressive), 1920x1080, 251561 kb/s, 30 fps, 30 tbr, 30 tbn (default)\n    Metadata:\n      handler_name    : VideoHandler\n      vendor_id       : [0][0][0][0]\n[out#0/matroska @ 0000014f43578fc0] Codec AVOption b:a (set bitrate (in bits/s)) has not been used for any stream. The most likely reason is either wrong type (e.g. a video option with no video streams) or that it is a private option of some decoder which was not actually used for any stream.\nStream mapping:\n  Stream #0:0 -> #0:0 (h264 (native) -> av1 (libsvtav1))\nPress [q] to stop, [?] for help\nSvt[info]: -------------------------------------------\nSvt[info]: SVT [version]:\tSVT-AV1 Encoder Lib v3.1.0-19-g6ecfe8ec\nSvt[info]: SVT [build]  :\tGCC 15.2.0\t 64 bit\nSvt[info]: LIB Build date: Aug 17 2025 11:37:13\nSvt[info]: -------------------------------------------\nSvt[info]: Level of Parallelism: 5\nSvt[info]: Number of PPCS 93\nSvt[info]: [asm level on system : up to avx2]\nSvt[info]: [asm level selected : up to avx2]\nSvt[info]: -------------------------------------------\nSvt[info]: SVT [config]: main profile\ttier (auto)\tlevel (auto)\nSvt[info]: SVT [config]: width / height / fps numerator / fps denominator \t\t: 1920 / 1080 / 30 / 1\nSvt[info]: SVT [config]: bit-depth / color format \t\t\t\t\t: 8 / YUV420\nSvt[info]: SVT [config]: preset / tune / pred struct \t\t\t\t\t: 4 / PSNR / random access\nSvt[info]: SVT [config]: gop size / mini-gop size / key-frame type \t\t\t: 161 / 16 / key frame\nSvt[info]: SVT [config]: BRC mode / target bitrate (kbps)\t\t\t\t: VBR / 4000 \nSvt[info]: SVT [config]: AQ mode / Variance Boost \t\t\t\t\t: 2 / 0\nSvt[info]: SVT [config]: sharpness / luminance-based QP bias \t\t\t\t: 0 / 0\nSvt[info]: SVT [config]: QP scale compress strength \t\t\t\t\t: 0\nSvt[info]: -------------------------------------------\nOutput #0, matroska, to 'C:\\Users\\Peter\\Desktop\\stuff\\MIUN\\quantitative_research\\video_compression\\compressed_videos\\BVI-HD\\av1\\4\\FishAndRock_1920x1080_30fps_av1.mkv':\n  Metadata:\n    major_brand     : isom\n    minor_version   : 512\n    compatible_brands: isomiso2avc1mp41\n    encoder         : Lavf62.3.100\n  Stream #0:0(und): Video: av1 (AV01 / 0x31305641), yuv420p(tv, progressive), 1920x1080, q=2-31, 4000 kb/s, 30 fps, 1k tbn (default)\n    Metadata:\n      encoder         : Lavc62.11.100 libsvtav1\n      handler_name    : VideoHandler\n      vendor_id       : [0][0][0][0]\n    Side data:\n      cpb: bitrate max/min/avg: 0/0/4000000 buffer size: 4000000 vbv_delay: N/A\nframe=    0 fps=0.0 q=0.0 size=       0KiB time=N/A bitrate=N/A speed=N/A elapsed=0:00:01.02    \nframe=    0 fps=0.0 q=0.0 size=       0KiB time=N/A bitrate=N/A speed=N/A elapsed=0:00:01.55    \nframe=    0 fps=0.0 q=0.0 size=       0KiB time=N/A bitrate=N/A speed=N/A elapsed=0:00:02.08    \nframe=    0 fps=0.0 q=0.0 size=       0KiB time=N/A bitrate=N/A speed=N/A elapsed=0:00:02.61    \nframe=    0 fps=0.0 q=0.0 size=       0KiB time=N/A bitrate=N/A speed=N/A elapsed=0:00:03.14    \nframe=    0 fps=0.0 q=0.0 size=       0KiB time=N/A bitrate=N/A speed=N/A elapsed=0:00:03.65    \nframe=    1 fps=0.2 q=12.0 size=       1KiB time=00:00:00.00 bitrate=N/A speed=   0x elapsed=0:00:04.18    \nframe=    1 fps=0.2 q=12.0 size=       1KiB time=00:00:00.00 bitrate=N/A speed=   0x elapsed=0:00:04.68    \nframe=    1 fps=0.2 q=12.0 size=       1KiB time=00:00:00.00 bitrate=N/A speed=   0x elapsed=0:00:05.22    \nframe=    5 fps=0.9 q=27.0 size=       1KiB time=00:00:00.13 bitrate=  42.8kbits/s speed=0.0231x elapsed=0:00:05.76    \nframe=    8 fps=1.3 q=27.0 size=       1KiB time=00:00:00.23 bitrate=  24.4kbits/s speed=0.0371x elapsed=0:00:06.29    \nframe=   11 fps=1.6 q=26.0 size=       1KiB time=00:00:00.33 bitrate=  17.1kbits/s speed=0.0488x elapsed=0:00:06.83    \nframe=   14 fps=1.9 q=26.0 size=       1KiB time=00:00:00.43 bitrate=  13.2kbits/s speed=0.0589x elapsed=0:00:07.35    \nframe=   19 fps=2.4 q=26.0 size=       1KiB time=00:00:00.60 bitrate=   9.5kbits/s speed=0.076x elapsed=0:00:07.89    \nframe=   23 fps=2.7 q=25.0 size=       1KiB time=00:00:00.73 bitrate=   7.8kbits/s speed=0.0871x elapsed=0:00:08.41    \nframe=   24 fps=2.7 q=26.0 size=       1KiB time=00:00:00.76 bitrate=   7.4kbits/s speed=0.0859x elapsed=0:00:08.92    \nframe=   28 fps=3.0 q=25.0 size=       1KiB time=00:00:00.90 bitrate=   6.3kbits/s speed=0.0954x elapsed=0:00:09.43    \nframe=   33 fps=3.3 q=9.0 size=       1KiB time=00:00:01.06 bitrate=   5.3kbits/s speed=0.107x elapsed=0:00:09.96    \nframe=   38 fps=3.6 q=27.0 size=       1KiB time=00:00:01.23 bitrate=   4.6kbits/s speed=0.118x elapsed=0:00:10.48    \nframe=   39 fps=3.5 q=26.0 size=       1KiB time=00:00:01.26 bitrate=   4.5kbits/s speed=0.115x elapsed=0:00:11.00    \nframe=   44 fps=3.8 q=25.0 size=       1KiB time=00:00:01.43 bitrate=   4.0kbits/s speed=0.124x elapsed=0:00:11.53    \nframe=   50 fps=4.1 q=28.0 size=       1KiB time=00:00:01.63 bitrate=   3.5kbits/s speed=0.135x elapsed=0:00:12.07    \nframe=   57 fps=4.5 q=22.0 size=       1KiB time=00:00:01.86 bitrate=   3.1kbits/s speed=0.148x elapsed=0:00:12.60    \nframe=   57 fps=4.3 q=22.0 size=       1KiB time=00:00:01.86 bitrate=   3.1kbits/s speed=0.142x elapsed=0:00:13.13    \nframe=   61 fps=4.4 q=24.0 size=       1KiB time=00:00:02.00 bitrate=   2.9kbits/s speed=0.146x elapsed=0:00:13.71    \nframe=   65 fps=4.5 q=10.0 size=       1KiB time=00:00:02.06 bitrate=   2.8kbits/s speed=0.145x elapsed=0:00:14.29    \nframe=   69 fps=4.6 q=26.0 size=       1KiB time=00:00:02.26 bitrate=   2.5kbits/s speed=0.152x elapsed=0:00:14.89    \nframe=   71 fps=4.6 q=27.0 size=       1KiB time=00:00:02.33 bitrate=   2.4kbits/s speed=0.151x elapsed=0:00:15.43    \nframe=   73 fps=4.6 q=23.0 size=       1KiB time=00:00:02.40 bitrate=   2.4kbits/s speed=0.15x elapsed=0:00:15.96    \nframe=   77 fps=4.7 q=24.0 size=       1KiB time=00:00:02.46 bitrate=   2.3kbits/s speed=0.149x elapsed=0:00:16.53    \nframe=   81 fps=4.7 q=10.0 size=       1KiB time=00:00:02.60 bitrate=   2.2kbits/s speed=0.152x elapsed=0:00:17.11    \nframe=   81 fps=4.6 q=10.0 size=       1KiB time=00:00:02.66 bitrate=   2.1kbits/s speed=0.15x elapsed=0:00:17.75    \nframe=   85 fps=4.6 q=26.0 size=       1KiB time=00:00:02.80 bitrate=   2.0kbits/s speed=0.153x elapsed=0:00:18.32    \nframe=   89 fps=4.7 q=22.0 size=       1KiB time=00:00:02.93 bitrate=   1.9kbits/s speed=0.155x elapsed=0:00:18.87    \nframe=   89 fps=4.6 q=22.0 size=       1KiB time=00:00:02.93 bitrate=   1.9kbits/s speed=0.151x elapsed=0:00:19.40    \nframe=   93 fps=4.7 q=25.0 size=       1KiB time=00:00:03.06 bitrate=   1.9kbits/s speed=0.154x elapsed=0:00:19.94    \nframe=   97 fps=4.7 q=10.0 size=       1KiB time=00:00:03.20 bitrate=   1.8kbits/s speed=0.156x elapsed=0:00:20.54    \nframe=  101 fps=4.8 q=27.0 size=       1KiB time=00:00:03.33 bitrate=   1.7kbits/s speed=0.158x elapsed=0:00:21.09    \nframe=  105 fps=4.9 q=23.0 size=       1KiB time=00:00:03.46 bitrate=   1.6kbits/s speed=0.16x elapsed=0:00:21.63    \nframe=  105 fps=4.7 q=23.0 size=       1KiB time=00:00:03.46 bitrate=   1.6kbits/s speed=0.156x elapsed=0:00:22.16    \nframe=  111 fps=4.9 q=28.0 size=       1KiB time=00:00:03.66 bitrate=   1.6kbits/s speed=0.161x elapsed=0:00:22.71    \nframe=  115 fps=4.9 q=29.0 size=       1KiB time=00:00:03.80 bitrate=   1.5kbits/s speed=0.163x elapsed=0:00:23.27    \nframe=  121 fps=5.1 q=23.0 size=       1KiB time=00:00:03.93 bitrate=   1.5kbits/s speed=0.165x elapsed=0:00:23.80    \nframe=  121 fps=5.0 q=23.0 size=       1KiB time=00:00:04.00 bitrate=   1.4kbits/s speed=0.164x elapsed=0:00:24.36    \nframe=  127 fps=5.1 q=28.0 size=       1KiB time=00:00:04.20 bitrate=   1.4kbits/s speed=0.169x elapsed=0:00:24.88    \nframe=  133 fps=5.2 q=31.0 size=       1KiB time=00:00:04.40 bitrate=   1.3kbits/s speed=0.173x elapsed=0:00:25.40    \nframe=  137 fps=5.3 q=24.0 size=       1KiB time=00:00:04.53 bitrate=   1.3kbits/s speed=0.175x elapsed=0:00:25.92    \nframe=  143 fps=5.4 q=32.0 size=       1KiB time=00:00:04.73 bitrate=   1.2kbits/s speed=0.179x elapsed=0:00:26.44    \n[out#0/matroska @ 0000014f43578fc0] video:2324KiB audio:0KiB subtitle:0KiB other streams:0KiB global headers:0KiB muxing overhead: 0.061191%\nframe=  150 fps=5.7 q=32.0 Lsize=    2325KiB time=00:00:04.96 bitrate=3835.0kbits/s speed=0.188x elapsed=0:00:26.46    \n",
  "seconds": 26.920260190963745,
  "probe_out": {}
}